<?xml version="1.0" encoding="UTF-8" standalone="no"?>
<svg
   xmlns:dc="http://purl.org/dc/elements/1.1/"
   xmlns:cc="http://creativecommons.org/ns#"
   xmlns:rdf="http://www.w3.org/1999/02/22-rdf-syntax-ns#"
   xmlns:svg="http://www.w3.org/2000/svg"
   xmlns="http://www.w3.org/2000/svg"
   viewBox="0 0 1049.1866 184.49333"
   height="184.49333"
   width="1049.1866"
   xml:space="preserve"
   id="svg2"
   version="1.1"><metadata
     id="metadata8"><rdf:RDF><cc:Work
         rdf:about=""><dc:format>image/svg+xml</dc:format><dc:type
           rdf:resource="http://purl.org/dc/dcmitype/StillImage" /></cc:Work></rdf:RDF></metadata><defs
     id="defs6" /><g
     transform="matrix(1.3333333,0,0,-1.3333333,0,184.49333)"
     id="g10"><g
       transform="scale(0.1)"
       id="g12"><path
         id="path14"
         style="fill:#fbcb13;fill-opacity:1;fill-rule:evenodd;stroke:none"
         d="M 7498.5,1344.66 C 7961.01,1023.06 7767.96,276.801 7273.69,196.078 v 0.082 c 634.84,-0.551 840.9,860.09 224.81,1148.5" /><path
         id="path16"
         style="fill:#3375bd;fill-opacity:1;fill-rule:evenodd;stroke:none"
         d="m 7005.93,1349.5 c 551.53,81.25 777.65,-600.031 536.26,-914.859 399.32,402.437 79.75,1113.059 -536.26,914.859" /><path
         id="path18"
         style="fill:#2b9e4a;fill-opacity:1;fill-rule:evenodd;stroke:none"
         d="m 6680.29,1017.12 c 271.92,402.67 836.83,153.49 893.39,-253.495 64.87,502.985 -598.24,781.785 -893.39,253.495" /><path
         id="path20"
         style="fill:#cc1c30;fill-opacity:1;fill-rule:evenodd;stroke:none"
         d="m 6666.99,715.984 c 66.05,418.026 610.06,461.836 806.09,168.172 -160.2,416.004 -795.53,365.144 -806.09,-168.172" /><path
         id="path22"
         style="fill:#fff;fill-opacity:1;fill-rule:nonzero;stroke:none"
         d="M 0,938.641 H 221.152 L 405.445,454.934 585.195,938.641 H 802.309 V 199.449 H 635.688 V 718.5 L 431.195,199.449 H 355.461 L 149.961,718.5 V 199.449 H 0 v 739.192" /><path
         id="path24"
         style="fill:#fff;fill-opacity:1;fill-rule:nonzero;stroke:none"
         d="m 1194.6,434.23 c -53.52,0 -137.84,-4.042 -137.84,-76.75 0,-47.968 35.85,-65.128 79.28,-65.128 58.56,0 116.12,30.796 116.12,96.441 v 45.437 z m 59.08,-169.652 c -38.38,-57.058 -95.43,-76.738 -159.55,-76.738 -105.028,0 -183.794,52.5 -183.794,160.551 0,137.343 128.244,174.199 244.884,174.199 h 96.94 c 0,72.707 -7.07,121.68 -91.89,121.68 -47.46,0 -94.42,-21.707 -110.58,-69.676 l -114.612,49.988 c 35.344,97.449 144.912,128.246 242.362,128.246 130.77,0 222.66,-56.043 222.66,-200.949 v -352.43 h -146.42 v 65.129" /><path
         id="path26"
         style="fill:#fff;fill-opacity:1;fill-rule:nonzero;stroke:none"
         d="m 1529.35,740.207 h 149.96 v -85.828 c 34.84,66.644 108.55,98.449 182.77,98.449 126.24,0 180.26,-91.39 180.26,-209.027 V 199.449 h -149.96 v 322.633 c 0,67.16 -30.3,108.555 -99.97,108.555 -74.23,0 -113.1,-47.461 -113.1,-119.149 V 199.449 h -149.96 v 540.758" /><path
         id="path28"
         style="fill:#fff;fill-opacity:1;fill-rule:nonzero;stroke:none"
         d="m 2421.01,434.23 c -53.52,0 -137.85,-4.042 -137.85,-76.75 0,-47.968 35.85,-65.128 79.28,-65.128 58.57,0 116.12,30.796 116.12,96.441 v 45.437 z m 59.07,-169.652 c -38.38,-57.058 -95.43,-76.738 -159.55,-76.738 -105.03,0 -183.79,52.5 -183.79,160.551 0,137.343 128.25,174.199 244.88,174.199 h 96.94 c 0,72.707 -7.07,121.68 -91.89,121.68 -47.46,0 -94.42,-21.707 -110.58,-69.676 l -114.61,49.988 c 35.34,97.449 144.91,128.246 242.36,128.246 130.77,0 222.66,-56.043 222.66,-200.949 v -352.43 h -146.42 v 65.129" /><path
         id="path30"
         style="fill:#fff;fill-opacity:1;fill-rule:nonzero;stroke:none"
         d="m 3136.46,489.77 c 0,84.324 -40.9,148.953 -131.28,148.953 -94.42,0 -129.26,-71.192 -129.26,-157.032 0,-78.261 42.91,-145.921 130.77,-145.921 89.37,0 129.77,70.687 129.77,154 z m -276.2,-308 c 22.73,-55.032 80.29,-72.2 136.33,-72.2 87.35,0 135.82,41.91 135.82,132.289 v 81.801 c -35.34,-60.59 -103.5,-100.48 -173.68,-100.48 -153.5,0 -235.8,122.179 -235.8,265.582 0,139.355 90.38,264.066 241.85,264.066 70.19,0 130.78,-26.754 167.63,-93.402 v 80.781 h 148.95 V 241.859 C 3281.36,65.6484 3155.14,0 2996.59,0 2895.1,0 2783.01,26.7695 2742.62,130.281 l 117.64,51.489" /><path
         id="path32"
         style="fill:#fff;fill-opacity:1;fill-rule:nonzero;stroke:none"
         d="m 3776.67,528.148 c -4.04,74.219 -39.89,121.172 -114.62,121.172 -77.75,0 -117.65,-51.496 -127.24,-121.172 z M 3908.95,315.07 c -41.9,-97.449 -148.44,-127.23 -240.84,-127.23 -178.74,0 -287.29,110.57 -287.29,283.754 0,162.082 115.11,281.234 279.21,281.234 105.02,0 199.44,-48.469 239.84,-147.433 22.71,-55.54 22.71,-112.59 22.71,-169.141 h -389.79 c 4.04,-83.313 45.95,-141.883 134.31,-141.883 58.57,0 103,15.141 131.28,69.68 l 110.57,-48.981" /><path
         id="path34"
         style="fill:#fff;fill-opacity:1;fill-rule:nonzero;stroke:none"
         d="m 4040.22,938.641 h 468.55 V 846.746 H 4154.83 V 621.555 h 288.81 V 531.176 H 4154.83 V 291.34 h 371.62 v -91.891 h -486.23 v 739.192" /><path
         id="path36"
         style="fill:#fff;fill-opacity:1;fill-rule:nonzero;stroke:none"
         d="m 4645.09,740.715 h 107.54 v -85.84 c 32.32,67.156 104.02,95.938 177.23,95.938 131.28,0 192.88,-93.407 192.88,-218.125 V 199.449 H 5015.19 V 529.66 c 0,83.313 -39.38,130.774 -122.19,130.774 -87.35,0 -140.37,-53.02 -140.37,-137.844 V 199.449 h -107.54 v 541.266" /><path
         id="path38"
         style="fill:#fff;fill-opacity:1;fill-rule:nonzero;stroke:none"
         d="m 5673.08,489.77 c 0,99.472 -55.04,176.214 -160.06,176.214 -110.57,0 -162.59,-84.82 -162.59,-186.312 0,-91.387 60.09,-175.703 157.04,-175.703 107.04,0 165.61,83.308 165.61,185.801 z M 5339.33,169.66 c 28.27,-63.109 98.46,-83.8202 162.07,-83.8202 99.47,0 168.64,50.4882 168.64,155.0122 v 79.777 c -37.86,-63.617 -114.11,-101.5 -187.32,-101.5 -151.97,0 -241.85,119.672 -241.85,261.051 0,147.429 97.95,270.633 247.41,270.633 73.21,0 143.9,-29.286 181.76,-93.915 v 83.817 h 106.55 V 237.82 c 0,-164.6012 -123.71,-236.80047 -277.71,-236.80047 -99.97,0 -198.43,30.28907 -244.37,131.26947 l 84.82,37.371" /><path
         id="path40"
         style="fill:#fff;fill-opacity:1;fill-rule:nonzero;stroke:none"
         d="M 5920.46,739.199 H 6027 v -539.75 h -106.54 z m 52.01,222.16 c 35.85,0 66.65,-27.765 66.65,-65.129 0,-36.359 -30.3,-65.136 -66.65,-65.136 -36.35,0 -66.64,28.777 -66.64,65.136 0,36.352 30.29,65.129 66.64,65.129" /><path
         id="path42"
         style="fill:#fff;fill-opacity:1;fill-rule:nonzero;stroke:none"
         d="m 6191.1,740.715 h 107.54 v -85.84 c 32.31,67.156 104.01,95.938 177.22,95.938 131.28,0 192.89,-93.407 192.89,-218.125 V 199.449 H 6561.2 V 529.66 c 0,83.313 -39.39,130.774 -122.19,130.774 -87.35,0 -140.37,-53.02 -140.37,-137.844 V 199.449 H 6191.1 v 541.266" /><path
         id="path44"
         style="fill:#fff;fill-opacity:1;fill-rule:nonzero;stroke:none"
         d="m 7191.31,524.613 c -5.55,87.344 -50.99,144.403 -138.85,144.403 -91.89,0 -140.87,-63.114 -152.99,-144.403 z m 95.93,-203.984 c -47.46,-91.899 -132.28,-131.277 -229.23,-131.277 -170.65,0 -271.13,121.179 -271.13,278.707 0,159.054 101.99,282.754 261.54,282.754 189.35,0 249.43,-134.305 249.43,-302.95 h -401.41 c 0,-99.472 53.02,-175.203 156.52,-175.203 66.15,0 116.64,31.309 145.42,85.828 l 88.86,-37.859" /></g></g></svg>